<svg width="1559" height="5203" viewBox="0 0 1559 5203" fill="none" xmlns="http://www.w3.org/2000/svg">
<path d="M241.5 2C308.5 -2 183.5 248.5 280.5 317.5C377.5 386.5 995.5 313 1196 317.5C1396.5 322 1481 492.5 1403 591.5C1325 690.5 1114 514 967 544C820 574 748.364 653.282 600 656.5C460.688 659.522 302 522.5 241.5 622C181 721.5 241.5 799 241.5 799C241.5 799 332.5 911.5 429.5 911.5C526.5 911.5 656 851 798.5 831.5C941 812 1248.5 868 1377 956.5C1505.5 1045 1526 1120 1526 1120V1457C1526 1457 1426.55 1571.5 1329.05 1669C1231.55 1766.5 1068.5 1762 1010.55 1762C952.596 1762 701.5 1718.5 533 1718.5C364.5 1718.5 282.5 1796.5 224 1839C165.5 1881.5 1.5 2112 1.5 2112V2334.5C1.5 2334.5 12.5 2338.5 99 2422.5C185.5 2506.5 248.5 2566 349.5 2606C450.5 2646 572.5 2636 706 2636C839.5 2636 995 2606 1088.5 2606C1182 2606 1297.5 2621 1366.5 2708.5C1435.5 2796 1537 2932 1537 2932L1558 3199C1558 3199 1479 3366 1327 3471.5C1175 3577 917.5 3530 799.5 3546.5C681.5 3563 376 3546.5 283 3581.5C190 3616.5 142 3725.5 108.5 3762C75 3798.5 63.5 3872 63.5 3872L49.5 4168C49.5 4168 145.5 4387.69 368 4441C590.5 4494.31 604.5 4441 844 4441C1083.5 4441 1163.25 4417.97 1320.5 4517.5C1402.7 4569.53 1411.05 4626.66 1424.5 4723C1447.35 4886.65 1206.5 4807.15 1041.5 4816C869.175 4825.24 788.573 4700.08 616 4700.5C454.347 4700.89 300.509 4676.69 218.5 4816C148.986 4934.08 252 5044.5 337.5 5085.5C423 5126.5 774.5 5094.5 774.5 5201.5" stroke="white" stroke-width="2" stroke-linecap="round" stroke-linejoin="round" stroke-dasharray="20 25"/>
</svg>
