<svg width="600" height="600" viewBox="0 0 600 600" fill="none" xmlns="http://www.w3.org/2000/svg">
<path d="M196.95 399.78L206.7 428.82L219.45 422.28L206.22 394.83C206.22 394.83 197.58 399.3 196.95 399.78Z" fill="#79E1CF"/>
<path d="M260.07 317.4C276.437 312.781 292.274 306.456 307.32 298.53L381.78 310.23C381.78 310.23 395.4 318.12 397.05 318.36C401.711 317.981 406.377 319.027 410.43 321.36C415.92 325.17 426.9 325.17 429.75 325.65C433.865 326.981 437.796 328.825 441.45 331.14C444.3 332.82 456.96 336.87 459.12 338.31C461.28 339.75 466.26 341.31 467.46 347.31C469.137 354.684 470.142 362.195 470.46 369.75C470.22 375.24 468.81 390.03 466.65 395.76C464.49 401.49 455.19 431.31 454.65 434.76C454.11 438.21 453 461.49 451.65 466.29C450.3 471.09 443.79 496.29 442.65 500.88C441.51 505.47 432.87 528.33 431.43 532.38C429.99 536.43 427.83 543.84 428.43 546.93C429.297 550.277 429.541 553.755 429.15 557.19C428.67 561.03 431.79 579.87 430.83 581.19C429.87 582.51 396.45 584.04 384.78 580.47C373.11 576.9 326.55 581.91 307.68 580.95C288.81 579.99 238.95 579.51 231.81 577.95C224.67 576.39 215.82 576.06 220.11 571.29C224.4 566.52 224.88 559.83 225.12 553.29C225.748 547.379 226.944 541.542 228.69 535.86L213.69 433.11L235.71 388.11L260.07 317.4Z" fill="#BED4FC"/>
<path d="M467.22 288C470.97 290.64 470.49 290.07 467.22 290.49C463.95 290.91 462.24 291.03 461.85 293.16C461.529 294.894 461.037 296.593 460.38 298.23C460.226 298.116 460.085 297.985 459.96 297.84C453.96 289.02 458.61 291.3 447.6 290.4C445.41 290.4 451.44 288.36 453.21 284.4C453.87 282.93 450.78 277.44 452.52 278.4C457.8 281.19 456.09 280.17 456.75 280.56C458.73 281.79 464.61 276.96 466.86 276.3C467.55 281.16 462 284.16 467.22 288Z" fill="#FFEAB6"/>
<path d="M511.62 195C513.09 195.54 508.62 196.83 506.79 198.21C503.79 200.43 506.61 202.29 506.37 205.41C504.03 204.42 501.39 199.41 497.91 199.41C491.64 201.51 491.25 202.41 490.14 202.41C490.5 200.16 495.78 195.6 492.78 193.17C491.61 192.27 488.7 187.98 490.17 188.31C495.99 189.66 495.96 189.93 497.07 189.15C502.92 185.13 503.07 178.95 504.15 187.41C505.08 195 503.19 192 511.62 195Z" fill="#FFEAB6"/>
<path d="M504.33 96.18C504.18 96.39 504.06 96.66 503.85 96.75C496.29 100.65 495.78 100.17 496.23 102.75C497.37 109.86 497.1 108.75 496.92 109.98C488.91 102.72 492.09 103.65 490.92 103.44C488.7 103.11 484.56 105.6 480.57 106.44C479.19 106.44 479.73 106.14 483.18 100.44C486.99 94.23 468.45 86.88 484.53 91.44C487.53 92.31 486.99 91.89 492.45 84.54C494.19 82.17 493.08 92.88 497.13 93.24C498.54 93.24 500.49 94.92 503.7 95.64C503.936 95.7872 504.148 95.9693 504.33 96.18Z" fill="#FFEAB6"/>
<path d="M194.01 226.8C209.25 223.38 194.01 228.18 197.4 233.88C200.19 238.8 201.33 238.35 195.9 237.15C189.6 235.74 192.45 235.32 185.91 241.95C185.13 242.76 186.06 239.46 186.3 236.34C186.57 232.62 179.37 231.42 178.32 229.47C178.83 229.47 177.93 229.47 182.55 229.02C188.25 228.54 185.55 225.33 188.04 220.23C190.08 222 192.18 227.19 194.01 226.8Z" fill="#FFEAB6"/>
<path d="M224.67 159.36C225.42 160.62 221.67 159.36 216.36 157.38C213.36 156.27 214.05 154.02 206.97 163.92C204.24 167.79 208.23 155.4 203.7 153.72C193.44 149.88 193.44 150.72 204.72 146.64C207.18 145.74 206.01 140.37 207.72 135.75C218.43 145.77 209.4 144.93 225.06 141.33C222.75 147.51 217.95 149.28 220.71 152.49C222.242 154.651 223.568 156.951 224.67 159.36Z" fill="#FFEAB6"/>
<path d="M306.48 335.43C307.89 342.09 309.27 342.87 307.71 342.63C294.12 340.5 280.86 327.06 278.13 315.78C277.62 313.65 277.26 313.86 279.54 313.08C286.23 310.71 289.68 308.16 288.84 309.66C287.16 312.66 288.36 316.53 288.15 317.91C287.37 323.1 290.97 327.48 296.16 330.24C296.85 330.6 296.61 330.54 301.2 330.84C304.2 330.12 304.59 329.82 304.95 330.84C305.621 332.311 306.134 333.85 306.48 335.43V335.43Z" fill="#FFC6A6"/>
<path d="M413.4 107.04C421.62 110.49 423.93 111.03 418.38 112.41C414.9 111.57 414.48 111.51 412.38 107.25C412.17 106.71 412.83 106.8 413.4 107.04Z" fill="#E6FCFF"/>
<path d="M429.84 105.72C430.35 105.72 430.32 106.08 430.11 106.35C428.88 108 427.47 110.43 425.16 108.96C419.16 105.09 407.46 103.32 410.67 98.3104C411.99 96.2704 410.91 98.6104 417.75 101.55C425.16 104.73 427.83 105.96 429.84 105.72Z" fill="#E6FCFF"/>
<path d="M432.3 99.24C434.13 99.42 431.88 102.69 428.97 102.63C424.14 100.95 409.59 95.61 413.61 92.43C414.09 92.07 413.85 91.05 414.54 91.11C415.74 91.11 414.15 92.37 422.1 95.55C430.05 98.73 430.74 99 432.3 99.24Z" fill="#E6FCFF"/>
<path d="M417.27 84.6903C433.17 96.6903 439.47 90.5103 434.67 96.0903C433.77 97.1403 430.29 95.3703 428.97 94.8903C422.55 92.5203 411.84 89.1003 417.27 84.6903Z" fill="#E6FCFF"/>
<path d="M459.33 63.36C460.26 63.63 459.57 65.82 458.73 65.37C455.55 63.75 458.22 63 459.33 63.36Z" fill="#FFD152"/>
<path d="M427.62 55.1401C425.97 56.4901 425.22 53.8801 426.3 53.5801C426.66 53.4901 427.29 54.6301 427.62 55.1401Z" fill="#FFD152"/>
<path d="M438.93 30.6C476.1 30.39 484.11 79.29 445.47 83.7C440.43 84.3 439.47 82.86 437.91 84.87C435.09 88.86 436.92 90.66 434.61 90.06C429.894 88.8551 425.398 86.911 421.29 84.3C417.48 81.99 424.29 81.3 422.31 77.01C420.33 72.72 420.24 75.99 417.12 71.01C402.69 48 423.15 29.73 438.93 30.6ZM457.47 68.82C459.36 73.5 465.24 62.43 460.71 60.96C456.18 59.49 454.98 62.67 454.26 62.49C447.3 60.93 451.62 61.83 447.6 59.76C445.74 58.8 444.27 61.05 442.77 58.92C440.4 55.5 442.11 58.92 430.98 54.48C430.2 54.18 429.78 53.1 429.18 52.38C428.58 51.66 427.65 51.66 426.54 51.36C423.3 50.49 421.44 57.12 426.54 57.99C427.08 57.99 427.47 57.99 427.29 58.92C426.15 63.81 432.78 67.92 431.46 70.29C429.665 73.7196 428.401 77.4014 427.71 81.21C427.56 82.11 428.37 81.63 428.7 81.9C429.96 82.98 430.56 77.34 433.8 71.25C435.99 67.2 429.63 63.15 429.78 59.67C429.96 55.2 431.7 57.75 435.78 59.04C438.06 59.76 439.8 59.04 440.43 60.54C440.837 61.3414 441.518 61.9701 442.349 62.3115C443.181 62.6529 444.107 62.6843 444.96 62.4C447.72 61.68 447 63.81 450.24 64.5C453.48 65.19 453.45 65.04 453.45 66.24C453.45 66.66 453.45 67.11 452.94 67.23C451.398 67.7562 449.926 68.4716 448.56 69.36C446.85 70.17 447.6 68.79 444.75 70.65C440.46 73.44 441.18 71.67 439.38 73.08C436.38 75.51 429.81 82.44 431.91 84.09C434.01 85.74 434.25 81.42 438.51 77.52C442.77 73.62 442.11 75.51 443.55 74.52C446.55 72.66 446.97 72.39 447.42 72.36C450 72.15 451.98 69.99 453.93 69.81C456.57 69.57 455.88 67.26 456.45 67.44C457.02 67.62 457.26 68.31 457.47 68.82V68.82Z" fill="#FFD152"/>
<path d="M200.34 58.35C200.811 59.9087 200.798 61.5739 200.303 63.125C199.807 64.6762 198.852 66.0402 197.564 67.0367C196.276 68.0331 194.715 68.6149 193.089 68.705C191.463 68.7952 189.848 68.3895 188.458 67.5417C187.068 66.6938 185.968 65.4437 185.303 63.9569C184.639 62.4701 184.442 60.8166 184.738 59.2153C185.034 57.614 185.81 56.1403 186.962 54.9894C188.114 53.8385 189.588 53.0645 191.19 52.77C193.134 52.4192 195.139 52.7934 196.825 53.8218C198.511 54.8502 199.762 56.4613 200.34 58.35Z" fill="#9EDEFF"/>
<path d="M170.61 84.18C171.93 82.68 173.61 81.18 174.42 83.19C174.42 83.19 147.15 113.67 147.09 113.73C144.87 112.2 144 115.32 170.61 84.18Z" fill="#9EDEFF"/>
<path d="M188.7 110.7C189.24 111.99 189 111.51 170.1 130.23C169.14 131.22 169.59 131.19 168.54 116.16C168.54 114.75 180.54 105.36 184.41 100.74C188.28 96.1197 187.26 96.8997 188.7 110.7Z" fill="#9EDEFF"/>
<path d="M155.82 72.0003C158.13 71.7003 151.59 77.0103 146.82 84.2103C145.74 85.7703 141.66 91.2303 140.07 91.4403C140.07 91.4403 125.07 91.8903 125.07 91.8003C124.65 91.2303 132.66 83.5803 140.07 75.0903C141 73.6803 141 73.9203 155.82 72.0003Z" fill="#9EDEFF"/>
<path d="M228.75 28.47C228.455 32.7148 227.525 36.8914 225.99 40.86C218.76 58.5 219.39 56.91 217.41 53.37C208.23 37.02 195.51 35.37 197.91 33.9C203.994 29.4198 210.832 26.0668 218.1 24C229.47 21 228.21 24 228.75 28.47Z" fill="#FF8E92"/>
<path d="M410.76 248.13C408.45 240.24 414.15 220.35 415.86 215.94C418.18 207.99 418.853 199.65 417.84 191.43C416.64 182.04 410.04 166.14 406.56 158.43C403.08 150.72 387.96 136.44 383.16 132.72C378.36 129 355.35 119.34 347.16 115.74C338.97 112.14 324.24 111.33 324.24 111.33C322.042 108.58 318.974 106.657 315.541 105.878C312.107 105.098 308.51 105.508 305.34 107.04C296.34 111.03 294.84 120.63 294.06 120.84C275.46 120.63 272.85 135.63 272.85 135.63C265.95 142.62 267.87 147.03 270.75 151.62C273.63 156.21 282.96 156.33 282.96 156.33C282.96 156.33 339.69 144 357 171C374.31 198 367.5 242.04 367.5 242.04L367.98 285.78C370.729 288.389 374.163 290.161 377.882 290.889C381.601 291.617 385.451 291.27 388.98 289.89C378.21 281.67 380.28 276.99 380.28 276.99C396.6 287.07 403.8 276.99 403.8 276.99C401.027 276.447 398.428 275.234 396.232 273.456C394.036 271.678 392.308 269.389 391.2 266.79C396.008 268.247 400.974 269.123 405.99 269.4C419.4 270.69 422.4 263.4 422.4 263.4C422.4 263.4 413.04 256.02 410.76 248.13Z" fill="#FFB564"/>
<path d="M295.86 270C295.021 269.065 294.557 267.852 294.557 266.595C294.557 265.339 295.021 264.126 295.86 263.19C277.41 251.82 281.37 242.43 277.41 244.32C273.164 246.194 268.629 247.331 264 247.68C262.8 248.04 267.33 255.78 277.32 259.11C285.78 261.93 268.32 270 265.65 270.21C261.3 270.54 279.66 281.55 290.07 274.53C290.315 274.332 290.615 274.215 290.93 274.198C291.244 274.18 291.556 274.261 291.822 274.43C292.087 274.6 292.293 274.848 292.409 275.141C292.525 275.433 292.547 275.755 292.47 276.06C291.626 280.253 290.117 284.284 288 288C293.19 288.93 299.13 285.51 303.45 282.57C304.59 281.82 304.17 280.5 304.62 279.57C304.8 279.15 301.02 276.36 295.86 270Z" fill="#FFB564"/>
<path d="M248.61 306.96C254.1 318.36 254.34 317.79 252.99 318.27L192 338.4C191.28 338.4 192.27 340.11 178.71 313.29C178.02 311.94 174.39 313.77 217.2 299.43C224.64 296.94 231.72 294.45 239.67 291.84C241.71 291.18 240 289.14 248.61 306.96ZM240.42 316.71C239.13 314.49 238.11 316.02 236.52 316.08C236.13 316.08 197.28 328.08 194.52 329.4C193.17 329.97 191.94 331.77 193.59 332.19C194.22 332.34 238.11 319.38 240.42 316.71ZM231 304.05C231.96 303.57 232.62 301.89 230.58 301.47C230.22 301.47 227.91 302.16 224.58 303C212.73 306 211.08 308.22 208.02 308.16C204.48 308.16 204.63 309.6 199.35 310.77C187.35 313.44 189.3 314.58 186.09 314.73C185.7 314.73 185.07 315.66 184.95 316.02C184.68 317.1 187.95 317.73 189.51 316.86C192.846 315.067 196.489 313.917 200.25 313.47C205.2 312.6 205.02 311.01 207.93 311.16C213.48 310.41 215.58 308.16 220.62 306.9C225.66 305.64 227.16 306 231 304.05ZM223.11 315C223.612 315.033 224.109 314.885 224.511 314.582C224.913 314.279 225.193 313.842 225.3 313.35C225.3 309.9 213.3 315.39 207.63 316.35C202.47 317.22 190.74 320.64 189.03 322.5C187.83 323.82 188.49 324.57 190.11 324.66C196.11 322.62 195.3 322.35 197.46 321.66C209.94 318.15 201.36 321.03 214.59 317.22C220.59 315.6 220.98 315 223.11 315Z" fill="#FFF5DB"/>
<path d="M201 387.93C201.9 389.76 198.6 390.78 196.68 391.14C195.54 390.39 198.06 394.56 170.58 339.21C153 304.23 153 305.64 154.8 305.64C164.16 305.67 149.67 285 201 387.93Z" fill="#79E1CF"/>
<path d="M161.46 327.45C194.88 395.25 194.25 392.13 192.81 392.64C174.81 398.82 183.81 410.64 181.95 414.69C180.96 413.28 118.95 286.23 118.53 285.18C119.01 285 117.39 284.19 143.67 299.88C152.1 304.92 147.21 298.5 161.46 327.45Z" fill="#79E1CF"/>
<path d="M253.8 294.21C243.57 273 244.26 274.26 243.42 274.56C234.42 277.77 187.32 293.4 179.37 296.01C159.78 302.49 161.01 301.23 162.21 303.57C208.11 393.3 201.21 388.23 206.46 386.82C212.61 386.67 208.5 396.9 208.71 397.44C208.92 397.98 210.42 401.73 211.26 401.43C213.072 400.642 214.925 399.951 216.81 399.36C221.05 398.733 225.181 397.511 229.08 395.73C237.48 391.44 237.6 404.91 226.98 410.1C224.107 411.847 221.022 413.218 217.8 414.18C217.26 414.18 217.14 414.6 217.38 415.08C219.54 419.64 219 419.28 220.38 419.28C236.58 419.28 234.66 416.67 245.88 414.3C249.18 413.58 250.56 417.63 249.27 420.3C248.97 420.9 249.48 420.84 250.11 420.66C250.11 420.66 304.11 404.67 306.45 403.92C308.79 403.17 307.68 405.87 253.8 294.21ZM255 320.64C254.52 320.82 198.72 339.33 192 341.31C189.51 341.04 189.99 342.39 176.1 313.5C174.24 309.66 171.78 311.46 240.15 288.72C242.85 287.82 242.73 288.72 246.48 296.4C256.62 317.22 258.84 319.32 255 320.64Z" fill="#79E1CF"/>
<path d="M416.76 469.32C419.76 473.79 420.45 466.77 395.52 501.96C392.818 505.617 389.892 509.104 386.76 512.4C382.53 517.29 379.14 522.75 372.45 527.88C356.79 539.88 345.06 536.88 331.41 520.89C329.344 517.376 327.874 513.544 327.06 509.55C325.11 501.66 321.63 499.47 319.2 490.53C312.84 467.16 319.77 354.24 320.4 353.67C322.98 351.3 318.96 352.47 313.17 344.91C308.46 338.91 310.65 332.49 301.17 317.07C300.981 316.653 300.699 316.284 300.345 315.993C299.991 315.702 299.576 315.496 299.13 315.39C297.3 315.09 298.8 317.46 299.64 319.32C300.9 322.05 298.32 320.31 297.84 320.28C296.61 320.13 295.77 321.54 299.97 324C300.48 324.3 301.86 324.33 302.22 324.81C302.572 325.48 302.825 326.197 302.97 326.94C302.97 327.36 302.97 327.48 302.58 327.51C299.28 327.9 297.84 328.59 295.11 326.28C293.55 324.96 290.76 321.96 290.82 319.92C290.97 313.92 289.95 310.92 295.11 307.92C297.12 306.81 297.48 304.92 297.6 302.7C297.81 298.62 301.92 300.84 303.6 295.53C306 287.97 316.98 294.63 315.39 290.4C310.53 277.65 295.29 269.4 297.39 265.74C299.37 262.53 306.6 268.5 308.46 270.66C314.28 277.23 324.96 286.17 325.92 292.41C326.52 296.16 329.13 297.45 331.74 306.21C336.45 321.93 341.79 328.62 342.42 345.99C343.41 372.99 371.28 476.61 371.31 476.7C372.09 478.32 373.95 477.63 373.86 475.95C372.78 455.82 361.56 433.62 364.32 433.47C368.87 433.155 373.423 434.045 377.52 436.05C380.28 438.12 397.32 453.27 398.82 454.68C405.36 460.5 412.29 462.48 416.76 469.32Z" fill="#FFC6A6"/>
<path d="M382.8 214.83C395.46 204.12 410.43 212.82 397.8 233.04C395.28 237.03 392.76 240.48 381.75 245.04C367.44 251.04 365.73 214.41 365.46 281.04C365.46 299.94 367.5 305.61 394.05 318.48C395.1 318.99 385.89 325.86 385.83 325.89C369.84 337.35 379.23 331.89 361.53 339C358.53 340.14 346.14 345.27 345.93 343.38C343.53 323.31 338.73 318.72 335.43 306.96C332.43 296.58 329.07 293.94 328.77 290.46C328.35 285.36 316.77 275.46 315.36 273.66C314.85 273.06 314.91 272.82 315.66 272.55C349.47 261.54 344.34 253.17 340.92 255.18C333.96 259.23 302.79 270.39 288.27 253.74C272.34 235.44 271.98 202.95 278.58 204.99C281.308 205.593 284.148 205.436 286.793 204.537C289.438 203.638 291.785 202.03 293.58 199.89C295.32 198.15 293.58 204.78 301.98 206.31C303.72 206.64 304.38 204.51 303.33 204C300.78 202.71 298.38 202.11 297 197.82C295.92 194.49 306.3 197.16 306 189.36C306 187.29 303.99 187.23 303.54 189.09C302.73 192.3 303.54 191.82 298.74 192.72C298.32 192.72 298.2 192.72 298.35 192.21C300.99 183.9 300.15 181.53 302.85 179.52C304.019 178.836 305.351 178.479 306.706 178.486C308.06 178.494 309.388 178.865 310.55 179.561C311.712 180.257 312.666 181.252 313.311 182.443C313.957 183.634 314.271 184.976 314.22 186.33C314.61 196.14 324.12 210.51 335.22 210.09C350.94 209.46 355.47 193.26 358.32 191.49C360.21 190.29 362.19 191.04 370.17 195.93C372.51 197.34 365.7 211.56 376.8 216.42C377.97 216.93 375.42 218.49 378.27 219.42C378.6 219.78 380.22 216.99 382.8 214.83ZM397.17 224.25C397.585 223.411 397.758 222.474 397.668 221.543C397.578 220.612 397.229 219.724 396.661 218.981C396.093 218.238 395.328 217.669 394.453 217.338C393.578 217.007 392.628 216.928 391.71 217.11C386.85 218.16 381.54 224.34 384.12 229.35C384.99 231.06 384.12 234.6 382.32 235.02C378.75 235.8 378.51 234.12 377.64 235.74C376.77 237.36 378.69 238.74 380.64 238.74C386.82 238.74 388.89 231.66 386.91 227.85C386.656 227.434 386.507 226.963 386.475 226.477C386.444 225.991 386.531 225.504 386.73 225.06C387.99 222.06 394.26 216.39 394.86 224.43C395.01 225.27 396.54 225.57 397.17 224.25ZM302.49 227.64C302.49 226.56 301.83 223.41 299.31 223.35C296.31 223.35 295.86 227.82 298.02 230.01C299.31 231.36 301.77 231.66 302.49 227.64V227.64Z" fill="#FFC6A6"/>
<path d="M254.01 451.23C262.77 457.23 261.42 451.5 257.19 479.94C255.141 492.211 252.264 504.328 248.58 516.21C247.74 518.67 249 509.16 248.58 499.08C248.16 485.4 234.06 462.54 232.56 463.08C229.56 464.07 235.56 467.58 242.88 487.86C247.89 502.08 245.25 521.64 241.74 526.86C237.18 533.58 233.22 536.43 221.73 534.69C216.576 533.914 211.768 531.627 207.912 528.119C204.057 524.611 201.328 520.039 200.07 514.98C198.45 508.32 195.81 500.64 197.07 492.57C203.07 449.37 199.47 469.38 206.97 479.7H208.32C207.9 476.43 207.6 476.7 203.58 463.5C202.32 459.3 202.29 458.7 200.97 457.86C195.3 454.32 196.35 453.75 195.24 447.75C194.55 444.12 190.08 445.08 190.65 439.98C190.806 438.542 190.593 437.088 190.031 435.755C189.47 434.422 188.578 433.254 187.44 432.36C185.37 430.41 185.85 424.65 189.45 420.9C195.87 414.24 196.59 411.27 202.83 406.65C203.82 405.9 204.06 406.17 213.3 404.01C215.31 403.53 214.08 403.05 218.31 402.3C229.62 400.26 232.47 396.3 232.35 398.82C232.091 400.85 231.272 402.767 229.984 404.356C228.697 405.946 226.991 407.146 225.06 407.82C222.628 409.237 220.054 410.393 217.38 411.27C199.38 415.35 200.34 427.41 203.28 423.96C207.12 419.46 206.55 418.53 207.99 421.17C209.07 423.15 208.53 422.25 204.99 425.43C201.99 428.13 191.97 436.23 196.83 435.51C197.52 435.51 197.91 435.06 204.27 429.72C208.8 425.88 210.63 422.43 225.27 422.28C233.7 422.28 240.27 418.41 246 417.3C248.19 416.85 247.62 423.87 232.26 428.01C228.908 429.353 225.431 430.358 221.88 431.01C219.072 431.151 216.363 432.099 214.08 433.74C211.98 435.72 210.42 436.74 211.5 437.85C211.89 438.27 212.25 438.6 212.82 438C216.45 434.22 220.2 434.4 227.82 432.87C230.1 432.42 229.62 431.28 233.25 430.92C236.963 430.282 240.639 429.441 244.26 428.4C247.26 428.4 244.95 434.76 229.26 440.82C221.67 443.82 218.1 444.63 215.43 448.62C214.71 449.7 214.11 451.32 215.43 451.92C217.62 452.91 216.3 448.32 224.13 445.47C225.48 444.99 225.81 444.87 226.29 450.87C227.31 463.89 222.51 469.59 222.12 474.87C222.12 475.59 222.96 476.52 223.86 475.41C225.223 472.474 226.434 469.47 227.49 466.41C234.21 446.31 218.49 439.77 239.49 446.22C249 449.16 250.32 448.71 254.01 451.23Z" fill="#FFC6A6"/>
<path d="M205.44 390.3C209.52 389.37 206.13 398.19 198.66 402.3C192.66 405.69 192.06 406.02 191.22 407.04C190.38 408.06 191.22 409.35 192 409.08C196.92 407.64 205.08 398.85 188.34 418.08C184.38 422.64 184.98 422.97 184.44 418.95C184.476 417.422 184.616 415.898 184.86 414.39C185.61 410.82 181.68 402.39 185.88 399.72C191.315 396.414 197.088 393.699 203.1 391.62C203.823 391.085 204.609 390.642 205.44 390.3V390.3Z" fill="#FFC6A6"/>
<path d="M279.96 168C279.96 167.58 282.36 156 285.3 151.77C288.24 147.54 298.32 136.77 298.32 136.77C298.32 136.77 305.82 140.67 306.51 133.77C306.51 133.77 309.33 136.44 312.51 131.49C315.69 126.54 324 127.05 327 128.37C330 129.69 338.25 131.19 342.81 138.84C347.37 146.49 363 173.16 365.79 177C368.58 180.84 377.43 192 370.86 193.89L358.86 187.05C358.86 187.05 354.69 174.84 344.22 173.1C333.75 171.36 321.3 170.31 316.2 179.1C316.2 179.1 306.15 173.1 299.16 179.49C299.16 179.49 297.57 170.1 288.84 168.63C280.11 167.16 279.96 168 279.96 168Z" fill="#FFC6A6"/>
<path d="M79.0499 225.54L77.6398 217.05L84.3898 222.75L93.0899 218.67L90.1498 228.36L96.3299 237.36L86.0099 235.59L81.9298 244.71L79.3199 233.76L70.3499 229.5L79.0499 225.54Z" fill="#FFEAB6"/>
<path d="M511.14 222.99C497.13 234.15 495.63 255.54 488.58 250.41C480.51 244.41 475.35 238.14 475.11 229.14C475.11 226.65 473.76 224.22 471.36 225.12C469.41 225.971 467.405 226.692 465.36 227.28C458.49 229.08 458.76 222.84 455.58 225.75C454.298 226.636 453.103 227.64 452.01 228.75C451.02 229.65 451.5 229.14 449.22 227.43C446.94 225.72 443.64 228.06 444.09 229.38C444.308 229.701 444.629 229.938 445 230.053C445.371 230.167 445.769 230.152 446.13 230.01C447.9 229.23 448.17 230.91 449.97 232.35C452.97 234.78 455.34 226.86 457.92 228.69C462.21 231.69 464.16 230.67 470.7 228.45C474.75 227.1 466.98 236.07 483.21 249.84C492.21 257.55 493.74 255.12 500.79 241.02C503.37 235.86 508.44 227.46 513.03 224.64C514.92 223.47 517.14 222.87 521.76 226.14C532.59 233.82 527.76 235.77 526.35 239.1C526.11 239.7 527.4 240.78 527.97 240C531.54 235.11 530.55 236.64 531.3 234.27C530.01 226.83 517.86 217.65 511.14 222.99Z" fill="#000001"/>
<path d="M506.64 184.74C506.4 183.24 505.92 181.74 505.62 180.27C505.585 179.915 505.442 179.578 505.212 179.305C504.982 179.032 504.675 178.835 504.33 178.74C503.16 178.38 503.01 179.04 498.99 183.81C495.42 188.04 497.55 187.32 488.79 185.16C488.307 185.246 487.848 185.438 487.449 185.724C487.049 186.009 486.718 186.38 486.48 186.81C485.88 187.68 485.94 188.01 488.61 192.33C490.89 196.02 491.61 195.12 490.53 196.71C484.86 205.2 482.31 207.99 492.75 204.18C498.75 202.02 498.51 201.69 499.38 202.56C503.43 206.61 509.01 213.45 509.34 207.72C509.483 205.472 509.135 203.22 508.32 201.12C507.9 198.96 516.15 197.85 516.63 194.76C516.671 194.626 516.683 194.485 516.667 194.346C516.651 194.207 516.606 194.073 516.536 193.952C516.465 193.831 516.371 193.726 516.258 193.643C516.145 193.56 516.017 193.501 515.88 193.47C504.45 189.42 507.99 193.38 506.64 184.74ZM506.79 198.15C503.79 200.37 506.61 202.23 506.37 205.35C504.03 204.36 501.39 199.35 497.91 199.35C491.64 201.45 491.25 202.35 490.14 202.35C490.5 200.1 495.78 195.54 492.78 193.11C491.61 192.21 488.7 187.92 490.17 188.25C495.99 189.6 495.96 189.87 497.07 189.09C502.92 185.07 503.07 178.89 504.15 187.35C505.08 194.97 503.19 191.85 511.62 194.91C513 195.48 508.68 196.77 506.79 198.15Z" fill="#000001"/>
<path d="M469.2 135.96C469.44 147.96 476.97 153.96 464.37 152.34C445.05 149.82 441.18 145.17 443.01 159.21C443.25 161.1 443.34 160.5 434.01 164.28C429.33 166.2 431.46 168.57 434.01 167.58C442.53 164.1 446.28 163.59 446.01 159.87C445.41 153.3 444.57 152.13 447.06 152.55C463.89 155.25 466.74 155.88 469.77 155.55C481.59 154.29 466.53 135.48 474.6 131.55C480.27 128.73 482.16 133.23 509.37 144.06C510.87 144.66 512.37 145.26 512.85 143.85C513.33 142.44 511.95 142.35 511.2 142.05C484.2 130.98 486.96 130.44 481.2 128.55C479.933 127.957 478.538 127.689 477.141 127.77C475.744 127.851 474.389 128.278 473.198 129.013C472.007 129.748 471.019 130.768 470.321 131.981C469.623 133.194 469.238 134.562 469.2 135.96V135.96Z" fill="#000001"/>
<path d="M480.84 99.21C478.59 102.9 473.37 110.94 478.2 109.74C480 109.32 483.45 108.66 484.2 108.36C488.79 106.8 488.94 106.17 489.57 106.83C495.57 112.83 499.86 119.4 499.56 108.42C499.38 103.26 498.24 102.42 499.71 101.85C501.66 101.01 505.53 98.85 506.61 98.58C510.3 97.47 510.48 95.07 508.89 94.35C507.3 93.63 502.89 92.79 500.16 91.62C495.81 89.67 497.67 92.34 494.88 81.3C494.814 80.9715 494.646 80.6722 494.4 80.4448C494.154 80.2173 493.843 80.0734 493.51 80.0335C493.178 79.9936 492.841 80.0597 492.548 80.2225C492.255 80.3853 492.022 80.6364 491.88 80.94C491.52 81.42 490.26 83.22 486.42 88.86C485.52 90.21 476.91 85.68 475.5 87.36C471.96 91.47 482.01 97.29 480.84 99.21ZM484.44 91.59C487.44 92.46 486.9 92.04 492.36 84.69C494.1 82.32 492.99 93.03 497.04 93.39C498.42 93.39 500.4 95.07 503.61 95.79C503.868 95.8835 504.111 96.0149 504.33 96.18C504.18 96.39 504.06 96.66 503.85 96.75C496.29 100.65 495.78 100.17 496.23 102.75C497.37 109.86 497.1 108.75 496.92 109.98C488.91 102.72 492.09 103.65 490.92 103.44C488.7 103.11 484.56 105.6 480.57 106.44C479.19 106.44 479.73 106.14 483.18 100.44C486.9 94.29 468.36 87 484.44 91.59Z" fill="#000001"/>
<path d="M409.92 106.08C409.786 107.251 409.898 108.438 410.25 109.563C410.601 110.689 411.184 111.728 411.961 112.615C412.738 113.502 413.691 114.217 414.761 114.714C415.83 115.211 416.991 115.478 418.17 115.5C422.55 115.89 424.32 112.14 425.97 112.5C429.66 113.22 432.6 109.14 432.72 106.23C432.72 104.7 433.86 103.68 434.46 102.21C435.06 100.74 434.28 99.81 435.06 99.57C436.208 98.7804 437.133 97.709 437.748 96.4587C438.363 95.2084 438.646 93.8211 438.57 92.43C438.57 92.04 439.59 90.66 438.57 89.43C438.36 89.16 439.38 87.54 439.62 87.3C439.86 87.06 468.42 89.34 473.43 64.17C480.75 27.39 421.68 12.51 410.67 47.85C404.67 66.87 420.27 76.95 419.34 78.9C416.91 83.91 415.35 81.9 414.45 84.09C412.05 89.64 414.45 88.95 413.16 89.64C408.84 91.86 411.24 94.59 409.74 95.64C408.569 96.4999 407.775 97.7784 407.524 99.2091C407.272 100.64 407.583 102.112 408.39 103.32C409.56 104.7 410.16 105 409.92 106.08ZM418.38 112.41C414.9 111.57 414.48 111.51 412.38 107.25C412.11 106.71 412.77 106.8 413.34 107.04C421.62 110.46 423.93 111 418.38 112.41V112.41ZM417 71.01C402.57 48.12 423 29.73 438.81 30.6C475.98 30.39 483.99 79.29 445.35 83.7C440.31 84.3 439.35 82.86 437.79 84.87C434.97 88.86 436.8 90.66 434.49 90.06C429.774 88.8551 425.278 86.911 421.17 84.3C417.36 81.99 424.17 81.3 422.19 77.01C420.21 72.72 420.24 75.99 417 71.01ZM417.15 84.69C433.05 96.69 439.35 90.51 434.55 96.09C433.65 97.14 430.17 95.37 428.85 94.89C422.55 92.52 411.84 89.1 417.27 84.69H417.15ZM413.49 92.43C413.97 92.07 413.73 91.05 414.42 91.11C415.62 91.11 414.03 92.37 421.98 95.55C429.93 98.73 430.62 99.09 432.18 99.24C433.74 99.39 432 102.69 429 102.63C424.14 100.95 409.62 95.61 413.61 92.43H413.49ZM410.49 98.43C411.81 96.39 410.73 98.73 417.57 101.67C424.98 104.88 427.65 106.08 429.57 105.84C430.08 105.84 430.05 106.2 429.84 106.47C428.61 108.12 427.2 110.55 424.89 109.08C419.04 105 407.46 103.32 410.67 98.31L410.49 98.43Z" fill="#000001"/>
<path d="M469.23 286.08C466.89 284.58 467.79 284.4 468.3 282.18C470.37 273.18 470.28 273.81 470.16 273.18C470.145 272.927 470.061 272.682 469.916 272.473C469.771 272.264 469.571 272.099 469.338 271.997C469.105 271.894 468.849 271.858 468.597 271.892C468.345 271.927 468.107 272.03 467.91 272.19C464.91 274.56 461.49 275.97 458.43 278.19C457.02 279.15 452.28 274.35 451.2 274.77C449.61 275.43 448.44 276.21 448.95 278.16C451.08 285.87 450.42 285.06 449.31 285.78C446.04 287.88 443.31 288.78 443.52 291.45C443.52 293.61 450.06 293.46 452.52 293.49C454.98 293.52 454.47 294.57 455.31 295.95C459.06 302.13 461.31 305.7 463.17 298.68C464.79 292.86 462.78 293.49 472.74 293.16C477 292.83 473.79 288.99 469.23 286.08ZM467.1 290.43C463.59 290.88 462.12 290.97 461.73 293.1C461.409 294.835 460.917 296.533 460.26 298.17C460.106 298.056 459.965 297.926 459.84 297.78C453.84 288.96 458.49 291.24 447.48 290.34C445.29 290.34 451.32 288.3 453.09 284.34C453.75 282.87 450.66 277.38 452.4 278.34C457.68 281.13 455.97 280.11 456.63 280.5C458.61 281.73 464.49 276.9 466.74 276.24C467.55 281.19 461.85 284.19 467.22 287.97C471 290.58 470.49 290.01 467.1 290.43Z" fill="#000001"/>
<path d="M435.78 326.67C427.26 322.17 420.39 325.53 409.89 319.59C406.874 317.478 403.208 316.5 399.54 316.83C396.99 317.49 374.85 307.83 370.08 297.33C369.07 294.592 368.543 291.699 368.52 288.78C368.31 286.5 379.53 296.28 390.39 290.94C390.671 290.842 390.918 290.665 391.102 290.43C391.286 290.196 391.399 289.913 391.427 289.617C391.456 289.32 391.398 289.021 391.262 288.756C391.126 288.491 390.917 288.27 390.66 288.12C386.727 286.47 383.411 283.626 381.18 279.99C380.82 279.39 380.4 278.19 381.78 279.12C393.99 287.43 410.01 278.55 405.12 276.12C400.772 275.018 396.911 272.508 394.14 268.98C393.54 268.23 394.14 268.35 394.5 268.56C403.5 272.58 416.16 272.01 423.3 265.14C427.02 261.54 415.08 260.01 412.47 245.97C409.86 231.93 418.47 222.72 419.97 198.75C420.75 186.27 411.45 163.14 405.57 154.5C389.58 131.04 366.57 119.58 337.86 111.42C331.063 109.856 323.98 110.052 317.28 111.99C316.08 112.47 316.35 114.45 317.79 114.24C328.151 111.953 338.984 113.287 348.48 118.02C360.18 123.54 383.31 128.76 400.86 153.45C439.38 207.45 391.86 234.45 415.65 259.11C420.66 264.3 421.38 263.46 419.01 264.87C414.761 267.247 409.929 268.384 405.066 268.15C400.203 267.917 395.502 266.323 391.5 263.55C389.64 262.35 387.72 263.55 388.71 265.8C392.88 275.88 403.02 277.2 400.41 278.1C386.61 282.75 381.03 274.29 379.08 273.21C374.94 270.99 374.19 279.99 385.59 288.66C387.96 290.46 368.04 288.93 368.22 282.42C369.87 227.58 364.59 251.64 380.52 249.42C393.75 247.53 409.02 228.78 405.36 215.55C402.9 206.76 394.77 207.78 392.73 206.31C372.96 192.12 362.46 187.74 356.73 178.74C349.95 168.12 324.66 164.46 315.75 176.97C315.42 177.45 315.15 177.57 314.7 176.97C313.876 175.982 312.858 175.173 311.709 174.593C310.56 174.013 309.305 173.675 308.02 173.599C306.736 173.523 305.449 173.711 304.24 174.152C303.031 174.592 301.925 175.276 300.99 176.16C300.6 176.58 300.42 176.58 300.27 175.98C298.71 169.56 289.98 166.53 282.81 166.14C281.7 166.14 281.49 166.53 284.37 159.06C284.91 157.68 288.03 157.38 292.65 160.68C296.82 163.26 293.91 153.6 287.28 153.75C284.28 153.75 296.04 140.88 297.87 138.75C298.83 137.67 299.1 139.53 301.47 139.74C302.46 139.74 303.09 138.18 301.89 137.25C286.5 125.25 302.82 100.59 317.34 108.54C320.34 110.25 321.81 107.07 318.9 105.54C308.64 100.53 297.03 107.37 293.79 118.59C293.37 119.97 293.28 118.38 286.29 120C283.159 120.74 280.28 122.295 277.946 124.508C275.611 126.721 273.905 129.513 273 132.6C272.594 134.017 271.805 135.293 270.72 136.29C263.82 143.73 267.12 153.21 274.98 155.58C275.55 155.76 277.8 156.03 277.98 154.98C278.46 153.24 277.05 153.21 275.94 152.88C265.44 149.73 271.59 135.6 272.76 140.61C273.93 145.62 280.71 151.92 282.18 149.34C283.65 146.76 271.5 143.64 276 132.39C279.54 123.39 292.95 120.39 292.92 123.9C292.74 135 297.66 135.9 296.46 137.16C290.46 143.43 287.46 145.65 283.77 153.45C283.504 154.123 283.003 154.677 282.36 155.01C277.83 157.11 276.15 164.01 277.89 162.99C281.61 160.5 280.41 160.65 279.48 165.3C279.03 167.49 276.03 165.48 268.47 169.56C255 177 261.54 194.67 273 202.5C277.35 205.5 264.42 209.67 277.26 240.48C277.32 240.58 277.355 240.692 277.363 240.808C277.37 240.924 277.349 241.04 277.302 241.146C277.255 241.252 277.183 241.345 277.092 241.417C277.001 241.489 276.894 241.538 276.78 241.56C272.061 243.684 266.954 244.808 261.78 244.86C259.98 244.68 260.04 246.66 260.58 248.1C265.05 260.1 277.44 261.21 275.1 262.59C265.65 268.23 265.86 267.18 263.34 267.78C262.875 267.826 262.447 268.053 262.15 268.413C261.852 268.773 261.708 269.235 261.75 269.7C261.54 272.13 263.43 273.51 266.07 275.4C277.35 283.44 288.45 278.4 289.02 278.94C288.132 281.965 286.698 284.801 284.79 287.31C280.65 292.56 292.44 293.31 302.25 287.13C302.427 287.086 302.613 287.086 302.79 287.13C302.453 289.31 301.972 291.465 301.35 293.58C299.91 298.35 296.28 296.58 294.9 301.53C293.67 306.12 270.39 312.54 267.36 314.46C266.37 315.06 267.09 315.51 258.03 297C245.19 270.87 246.03 270.9 242.73 272.01C235.05 274.47 237.72 275.76 232.92 266.01C230.46 261 174.33 275.64 157.11 296.13C153.48 300.63 155.67 301.74 156.9 300.63C157.59 300.03 162.39 290.55 189.39 278.88C202.198 273.329 215.719 269.593 229.56 267.78C231.12 267.6 230.49 267.15 233.58 273.99C234.36 275.73 159.36 298.86 157.5 301.23C155.64 303.6 151.5 302.85 152.76 301.89C153.039 301.701 153.234 301.412 153.307 301.083C153.379 300.754 153.323 300.409 153.15 300.12C147.15 286.23 140.31 285.12 141.15 282.12C141.15 281.55 138.51 275.34 138.99 274.44C139.47 273.54 153.63 286.14 153.15 294.45C153.15 296.55 156.51 297.45 155.97 293.61C154.44 282.36 139.47 267.06 135.51 271.92C134.82 272.73 137.73 278.64 137.79 280.41C135.87 279.84 125.34 271.41 122.01 275.58C121.26 276.48 121.62 276.6 126.3 285.24C127.47 287.43 124.11 284.97 120.78 282.99C110.79 276.99 114.78 282.78 120.09 294.03C179.22 415.8 183.93 423.03 183.33 426.39C183.025 428.185 183.188 430.027 183.803 431.74C184.418 433.453 185.464 434.979 186.84 436.17C187.305 436.65 187.64 437.241 187.814 437.887C187.987 438.533 187.992 439.212 187.83 439.86C187.5 447.27 192.81 446.07 192.75 450.21C192.782 453.023 193.85 455.726 195.75 457.8C200.31 461.13 198.36 454.62 194.31 491.82C193.17 502.23 196.41 510.72 198.18 517.17C201.93 530.61 216.18 537.99 226.08 538.17C227.1 538.17 227.52 537.81 226.08 542.28C221.49 556.65 227.31 559.62 220.41 568.44C219.19 570.214 218.483 572.29 218.37 574.44C218.408 574.727 218.544 574.992 218.755 575.19C218.966 575.389 219.238 575.508 219.527 575.53C219.815 575.551 220.102 575.472 220.34 575.306C220.577 575.141 220.75 574.898 220.83 574.62C222.27 569.25 226.83 566.91 227.01 559.41C227.01 558.09 227.19 549.81 227.49 548.55C230.16 537 229.59 538.2 231.12 537.96C240.87 536.4 242.94 530.94 248.43 523.5C252.27 518.28 260.43 483.48 262.98 458.97C262.98 458.01 262.98 457.02 263.85 456.36C264.72 455.7 269.04 428.91 268.95 426.36C268.95 425.37 267.21 424.98 266.85 425.88C265.86 428.25 264.36 442.95 262.47 452.7C262.26 453.9 261.78 453.15 257.28 449.97C251.28 445.71 250.41 446.73 242.94 444.6C230.94 441.09 233.94 442.86 240.63 438.6C249.63 432.78 249.03 427.35 248.01 426.06C246.99 424.77 243.75 425.52 248.01 424.29C287.7 412.8 302.91 408.48 308.34 406.29C312.09 404.85 311.34 404.43 310.44 403.47C310.44 403.47 304.74 391.89 268.44 318C267.9 316.86 267.57 317.28 274.77 315C275.25 315 275.4 315 275.49 315.51C277.279 323.356 281.474 330.446 287.49 335.79C303.6 349.32 309.51 344.61 310.74 346.68C320.97 364.11 315.75 323.25 313.74 449.1C313.74 496.95 317.97 494.1 323.67 508.11C324.12 509.16 326.67 520.11 328.44 522.06C345.99 542.85 360.03 542.49 375.45 529.92C388.38 519.39 410.07 485.34 411.75 486.63C413.43 487.92 416.19 488.04 418.83 489.84C422.4 492.27 427.98 494.64 432.09 493.44C435.48 492.45 434.58 494.79 452.19 443.04C453.12 440.28 451.38 465.54 445.5 488.55C437.4 520.17 424.5 538.23 427.5 550.29C428.7 554.97 426.63 556.65 427.5 564.33C430.5 586.53 429.03 585.12 431.43 585.33C433.83 585.54 431.16 568.08 430.95 567.06C429.12 557.73 431.49 555.06 430.26 549.9C427.08 536.73 444.57 515.55 452.34 469.29C455.76 449.04 453.15 441.15 460.08 421.56C468.72 397.32 474.3 380.25 470.25 354.69C467.25 336 461.46 340.23 435.78 326.67ZM154.8 305.67C164.16 305.67 149.61 284.97 200.91 387.96C201.81 389.79 198.51 390.81 196.59 391.17C195.45 390.42 197.97 394.59 170.49 339.24C153 304.23 153 305.64 154.8 305.64V305.67ZM125.16 277.8C129.15 277.32 146.16 288.93 150.27 300.51C143.28 297.034 136.57 293.022 130.2 288.51C129.63 286.08 125.67 279.54 125.16 277.77V277.8ZM181.95 414.72C180.96 413.28 118.95 286.26 118.53 285.21C119.01 285.03 117.39 284.22 143.67 299.91C152.1 304.95 147.21 298.56 161.46 327.48C194.88 395.28 194.25 392.16 192.81 392.67C174.84 398.82 183.78 410.61 181.95 414.69V414.72ZM184.44 419.04C184.476 417.512 184.616 415.989 184.86 414.48C185.61 410.91 181.68 402.48 185.88 399.81C191.315 396.505 197.088 393.789 203.1 391.71C203.82 391.155 204.606 390.691 205.44 390.33C209.52 389.43 206.13 398.22 198.66 402.33C192.66 405.72 192.06 406.05 191.22 407.07C190.38 408.09 191.22 409.38 192 409.11C196.92 407.67 205.08 398.88 188.34 418.11C184.38 422.7 184.98 423 184.44 419.01V419.04ZM207.42 401.04C207.93 402.3 207.75 402.09 203.07 403.02C203.07 403.02 203.07 403.02 203.07 402.78C205.68 401.19 206.07 399.39 206.58 399.51C207.09 399.63 207 400.11 207.42 401.13V401.04ZM232.14 427.86C228.788 429.203 225.311 430.208 221.76 430.86C218.951 431.001 216.243 431.949 213.96 433.59C211.86 435.57 210.3 436.59 211.38 437.7C211.77 438.12 212.13 438.45 212.7 437.85C216.33 434.07 220.08 434.25 227.7 432.72C229.98 432.27 229.5 431.13 233.13 430.77C236.843 430.132 240.519 429.291 244.14 428.25C247.14 428.25 244.83 434.61 229.14 440.67C221.52 443.67 217.98 444.48 215.31 448.47C214.59 449.55 213.99 451.17 215.31 451.77C217.5 452.76 216.18 448.17 224.01 445.32C225.36 444.84 225.69 444.72 226.17 450.72C227.19 463.74 222.39 469.44 222 474.72C222 475.44 222.84 476.37 223.74 475.26C224.64 474.15 227.07 467.04 227.37 466.26C234.09 446.16 218.37 439.62 239.37 446.07C249 449.07 250.2 448.56 253.89 451.08C262.65 457.08 261.3 451.35 257.07 479.79C255.021 492.061 252.144 504.178 248.46 516.06C247.62 518.52 248.88 509.01 248.46 498.93C248.04 485.25 233.94 462.39 232.44 462.93C229.44 463.92 235.44 467.43 242.76 487.71C247.77 501.93 245.13 521.49 241.62 526.71C237.06 533.43 233.1 536.28 221.61 534.54C216.456 533.763 211.647 531.477 207.792 527.968C203.937 524.46 201.208 519.889 199.95 514.83C198.33 508.17 195.69 500.49 196.95 492.42C202.95 449.22 199.35 469.23 206.85 479.55H208.2C207.78 476.28 207.48 476.55 203.46 463.35C202.2 459.15 202.17 458.55 200.85 457.71C195.18 454.17 196.23 453.6 195.12 447.6C194.43 443.97 189.96 444.93 190.53 439.83C190.686 438.392 190.473 436.938 189.911 435.605C189.35 434.272 188.458 433.103 187.32 432.21C185.25 430.26 185.73 424.5 189.33 420.75C195.75 414.09 196.47 411.12 202.71 406.5C203.7 405.75 203.94 406.02 213.18 403.86C215.19 403.38 213.96 402.9 218.19 402.15C229.5 400.11 232.35 396.15 232.23 398.67C231.971 400.7 231.152 402.617 229.864 404.206C228.576 405.796 226.871 406.996 224.94 407.67C222.508 409.087 219.934 410.243 217.26 411.12C199.26 415.2 200.22 427.26 203.16 423.81C207 419.31 206.43 418.38 207.87 421.02C208.95 423 208.41 422.1 204.87 425.28C201.87 427.98 191.85 436.08 196.71 435.36C197.4 435.36 197.79 434.91 204.15 429.57C208.68 425.73 210.51 422.28 225.15 422.13C233.58 422.13 240.15 418.26 245.88 417.15C248.07 416.79 247.5 423.81 232.14 427.95V427.86ZM211.44 421.2C211.05 420.84 211.23 421.41 209.52 417.93C209.13 417.09 209.79 416.85 213.99 415.56C214.53 415.38 215.01 416.37 216.24 419.1C216.51 419.82 216 420 211.44 421.29V421.2ZM306.3 403.92C303.9 404.67 250.05 420.63 249.96 420.66C249.33 420.84 248.82 420.9 249.12 420.3C250.41 417.54 249.12 413.49 245.73 414.3C234.51 416.67 236.43 419.25 220.23 419.28C219 419.28 219.54 419.64 217.23 415.08C216.99 414.6 217.23 414.3 217.65 414.18C220.872 413.218 223.957 411.847 226.83 410.1C237.45 404.91 237.33 391.44 228.93 395.73C225.031 397.511 220.9 398.733 216.66 399.36C214.775 399.951 212.922 400.642 211.11 401.43C210.27 401.73 208.95 398.43 208.56 397.44C208.17 396.45 212.46 386.67 206.31 386.82C201.06 388.23 207.96 393.3 162.06 303.57C160.86 301.23 159.63 302.49 179.22 296.01C187.17 293.4 234.39 277.77 243.27 274.56C244.11 274.26 243.27 273 253.65 294.21C307.68 405.87 308.52 403.32 306.3 404.01V403.92ZM372.99 198.93C372.99 197.73 372.39 197.73 387.09 207.27C389.01 208.5 384.54 207.99 379.98 213.27C379.11 214.29 379.08 214.23 377.82 213.63C372.36 211.2 372.21 205.26 372.99 199.02V198.93ZM320.04 177C326.04 172.08 345.54 172.2 353.04 180.69C359.58 188.13 343.38 215.34 327.39 204.15C319.71 198.78 312.57 183 320.04 177ZM281.28 190.62C281.28 189.12 279.6 170.46 282.03 170.58C286.593 170.418 291.101 171.608 294.99 174C301.44 178.23 294.12 207.45 278.4 201.66C276.72 201 281.16 197.07 281.28 190.62ZM273 172.05C274.56 171.57 276 171.21 277.74 170.79C278.28 170.79 278.55 170.79 278.49 171.39C276.93 184.92 281.31 188.76 276.12 199.14C275.52 200.4 275.4 200.46 274.38 199.65C261.81 189.39 258.3 176.64 273 172.05ZM278.55 205.05C281.278 205.654 284.118 205.497 286.763 204.598C289.408 203.699 291.755 202.091 293.55 199.95C295.26 198.21 293.55 204.84 301.95 206.37C303.69 206.7 304.35 204.57 303.3 204.06C300.75 202.77 298.35 202.17 296.97 197.88C295.89 194.55 306.27 197.22 305.97 189.42C305.97 187.35 303.96 187.29 303.51 189.15C302.7 192.36 303.51 191.88 298.71 192.78C298.29 192.78 298.17 192.78 298.32 192.27C300.96 183.96 300.12 181.59 302.82 179.58C303.989 178.897 305.321 178.54 306.675 178.547C308.03 178.554 309.358 178.925 310.52 179.621C311.682 180.317 312.636 181.313 313.281 182.504C313.927 183.694 314.241 185.037 314.19 186.39C314.58 196.2 324.09 210.57 335.19 210.15C350.91 209.52 355.44 193.32 358.29 191.55C360.18 190.35 362.16 191.1 370.14 195.99C372.48 197.4 365.67 211.62 376.77 216.48C377.94 216.99 375.39 218.55 378.24 219.48C378.69 219.48 380.31 216.81 382.89 214.65C395.55 203.94 410.52 212.64 397.89 232.86C395.37 236.85 392.85 240.3 381.84 244.86C367.53 250.86 365.82 214.23 365.55 280.86C365.55 299.76 367.59 305.43 394.14 318.3C395.19 318.81 385.98 325.68 385.92 325.71C369.93 337.17 379.32 331.71 361.62 338.82C358.62 339.96 346.23 345.09 346.02 343.2C343.62 323.13 338.82 318.54 335.52 306.78C332.52 296.4 329.16 293.76 328.86 290.28C328.44 285.18 316.86 275.28 315.45 273.48C314.94 272.88 315 272.64 315.75 272.37C349.56 261.36 344.43 252.99 341.01 255C334.05 259.05 302.88 270.21 288.36 253.56C272.25 235.62 271.89 203.13 278.49 205.17L278.55 205.05ZM288 288C290.112 284.263 291.611 280.212 292.44 276C292.517 275.695 292.495 275.373 292.379 275.081C292.262 274.788 292.057 274.539 291.791 274.37C291.526 274.201 291.214 274.12 290.9 274.138C290.585 274.155 290.284 274.272 290.04 274.47C279.63 281.49 261.27 270.48 265.62 270.15C268.23 269.94 285.75 261.87 277.29 259.05C267.3 255.72 262.77 247.98 263.97 247.62C268.656 247.31 273.253 246.194 277.56 244.32C281.52 242.43 277.56 251.82 296.01 263.19C295.171 264.126 294.707 265.338 294.707 266.595C294.707 267.852 295.171 269.065 296.01 270C301.17 276.3 305.01 279 304.74 279.6C304.29 280.56 304.74 281.88 303.57 282.6C299.1 285.63 293.16 289.05 288 288ZM307.74 342.51C294.15 340.38 280.89 326.94 278.16 315.66C277.65 313.53 277.29 313.74 279.57 312.96C286.26 310.59 289.71 308.04 288.87 309.54C287.19 312.54 288.39 316.41 288.18 317.79C287.4 322.98 291 327.36 296.19 330.12C296.88 330.48 296.64 330.42 301.23 330.72C304.23 330 304.62 329.7 304.98 330.72C305.638 332.218 306.15 333.775 306.51 335.37C307.71 342 309.27 342.87 307.71 342.63L307.74 342.51ZM395.55 501.84C392.848 505.497 389.922 508.984 386.79 512.28C382.56 517.17 379.17 522.63 372.48 527.76C356.82 539.76 345.09 536.76 331.44 520.77C329.374 517.257 327.904 513.425 327.09 509.43C325.14 501.54 321.66 499.35 319.23 490.41C312.87 467.04 319.8 354.12 320.43 353.55C323.01 351.18 318.99 352.35 313.2 344.79C308.49 338.79 310.68 332.37 301.2 316.95C301.011 316.533 300.729 316.165 300.375 315.874C300.021 315.582 299.606 315.376 299.16 315.27C297.33 314.97 298.83 317.34 299.67 319.2C300.93 321.93 298.35 320.19 297.87 320.16C296.64 320.01 295.8 321.42 300 323.88C300.51 324.18 301.89 324.21 302.25 324.69C302.602 325.36 302.855 326.078 303 326.82C303 327.24 303 327.36 302.61 327.39C299.31 327.78 297.87 328.47 295.14 326.16C293.58 324.84 290.79 321.84 290.85 319.8C291 313.8 289.98 310.8 295.14 307.8C297.15 306.69 297.51 304.8 297.63 302.58C297.84 298.5 301.95 300.72 303.63 295.41C306.03 287.85 317.01 294.51 315.42 290.28C310.56 277.53 295.32 269.28 297.42 265.62C299.4 262.41 306.6 268.38 308.49 270.54C314.31 277.11 324.99 286.05 325.95 292.29C326.55 296.01 329.16 297.33 331.77 306.09C336.48 321.81 341.82 328.5 342.45 345.87C343.44 372.87 371.31 476.49 371.34 476.58C372.12 478.2 373.98 477.54 373.89 475.83C372.81 455.7 361.59 433.5 364.35 433.35C368.9 433.035 373.453 433.925 377.55 435.93C380.31 438 397.35 453.15 398.85 454.56C405.06 460.26 411.99 462.24 416.46 469.08C419.64 473.79 420.48 466.77 395.52 501.96L395.55 501.84ZM305.55 288.42C306.93 281.34 306.78 281.61 307.62 282.42C309.124 284.071 310.35 285.956 311.25 288C311.88 289.17 309.96 288.75 309.93 288.63C305.64 289.41 305.13 289.77 305.37 288.54L305.55 288.42ZM434.31 485.28C434.184 485.531 434.011 485.756 433.8 485.94C433.634 485.774 433.483 485.594 433.35 485.4C425.19 473.4 421.08 470.4 419.16 466.98C416.73 462.69 409.71 458.25 405.48 455.67C402.69 453.96 397.26 448.38 392.97 444.99C383.28 437.34 383.04 432.51 369.21 430.62C367.11 430.32 363.9 431.25 363.39 430.83C362.88 430.41 363.39 429.69 365.82 425.01C367.857 420.784 370.298 416.766 373.11 413.01C385.53 395.49 383.01 396.39 387.24 389.16C394.68 376.32 396.63 377.88 408.54 365.16C424.86 347.7 425.67 347.31 426.75 344.55C427.23 343.26 426.09 342.66 425.49 343.29C388.17 382.71 391.74 374.79 384.09 389.07C367.14 420.75 377.04 398.7 362.58 424.77C361.05 427.5 344.58 352.23 346.17 347.19C346.62 345.75 348.3 348.06 361.17 342.6C380.64 334.29 370.38 341.04 386.67 329.04C394.92 323.04 398.67 316.35 407.04 321.36C417.84 327.84 421.74 325.17 431.88 328.17C437.25 329.76 436.71 331.53 459.24 340.62C465.84 343.29 466.77 349.11 467.55 354.84C471.42 385.05 468.72 388.71 434.13 485.4L434.31 485.28Z" fill="#000001"/>
<path d="M426.69 57.9896C427.23 57.9896 427.62 57.9896 427.44 58.9196C426.3 63.8096 432.93 67.9196 431.61 70.2896C429.816 73.7193 428.551 77.4011 427.86 81.2096C427.71 82.1096 428.52 81.6296 428.85 81.8996C430.11 82.9796 430.71 77.3396 433.95 71.2496C436.14 67.1996 429.78 63.1496 429.93 59.6696C430.11 55.1996 431.85 57.7496 435.93 59.0396C438.21 59.7596 439.95 59.0396 440.58 60.5396C440.987 61.3411 441.668 61.9697 442.5 62.3111C443.331 62.6525 444.257 62.6839 445.11 62.3996C447.87 61.6796 447.15 63.8096 450.39 64.4996C453.63 65.1896 453.6 65.0396 453.6 66.2396C453.6 66.6596 453.6 67.1096 453.09 67.2296C451.548 67.7558 450.076 68.4713 448.71 69.3596C447 70.1696 447.75 68.7896 444.9 70.6496C440.61 73.4396 441.33 71.6696 439.53 73.0796C436.53 75.5096 429.96 82.4396 432.06 84.0896C434.16 85.7396 434.4 81.4196 438.66 77.5196C442.92 73.6196 442.26 75.5096 443.7 74.5196C446.7 72.6596 447.12 72.3896 447.57 72.3596C450.15 72.1496 452.13 69.9896 454.08 69.8096C456.72 69.5696 456.03 67.2596 456.6 67.4396C457.17 67.6196 457.17 68.1896 457.38 68.6996C459.27 73.4096 465.15 62.3096 460.62 60.8396C456.09 59.3696 454.89 62.5496 454.17 62.3696C447.21 60.8096 451.53 61.7096 447.51 59.6396C445.65 58.6796 444.18 60.9296 442.68 58.7996C440.31 55.3796 442.02 58.7996 430.89 54.3596C430.11 54.0596 429.69 52.9796 429.09 52.2596C428.49 51.5396 427.56 51.5396 426.45 51.2396C423.3 50.4896 421.44 56.9996 426.69 57.9896ZM459.33 63.3596C460.26 63.6296 459.57 65.8196 458.73 65.3696C455.55 63.7496 458.22 62.9996 459.33 63.3596V63.3596ZM426.33 53.5796C426.69 53.5796 427.32 54.6296 427.65 55.1396C426 56.4896 425.22 53.9996 426.3 53.5796H426.33Z" fill="#000001"/>
<path d="M447.63 381.18C437.67 386.28 424.38 395.55 393.63 397.44C392.46 397.44 391.29 397.98 391.44 399.18C391.59 400.38 417.09 401.73 448.44 383.64C452.58 381.21 450.36 379.8 447.63 381.18Z" fill="#000001"/>
<path d="M398.31 389.37C414.36 384.36 435 368.37 433.68 366.63C431.07 363.3 424.47 376.68 397.44 387.24C396.48 387.6 396.9 389.07 398.31 389.37Z" fill="#000001"/>
<path d="M387 185.19C387.51 185.73 399.36 196.47 400.65 193.14C401.13 191.88 400.35 191.52 396.21 188.64C374.64 174 365.49 144.36 355.23 138C354.54 137.58 353.97 139.23 354.24 139.74C356.597 142.339 358.735 145.128 360.63 148.08C373.2 168.18 370.08 166.86 387 185.19Z" fill="#000001"/>
<path d="M388.53 337.35C381.72 341.4 381.57 343.35 378.03 344.88C375.69 345.9 357.03 353.19 358.62 355.92C359.49 357.33 359.34 356.19 379.62 347.16C382.504 345.365 385.252 343.359 387.84 341.16C398.1 333.75 399.54 333.87 399.03 332.16C398.13 329.43 392.55 334.98 388.53 337.35Z" fill="#000001"/>
<path d="M380.73 238.62C386.91 238.62 388.98 231.54 387 227.73C386.746 227.315 386.596 226.843 386.565 226.357C386.534 225.871 386.621 225.385 386.82 224.94C388.08 221.94 394.35 216.27 394.95 224.31C394.95 225.27 396.51 225.57 397.17 224.31C397.585 223.472 397.758 222.534 397.668 221.603C397.578 220.672 397.229 219.785 396.661 219.042C396.093 218.299 395.328 217.729 394.453 217.399C393.578 217.068 392.628 216.989 391.71 217.17C386.85 218.22 381.54 224.4 384.12 229.41C384.99 231.12 384.12 234.66 382.32 235.08C378.75 235.86 378.51 234.18 377.64 235.8C376.77 237.42 378.69 238.62 380.73 238.62Z" fill="#000001"/>
<path d="M360 102C360.18 99.9603 359.58 94.2303 364.65 92.8503C368.73 91.7103 370.98 92.1003 372.81 88.9203C374.37 86.2203 372.81 85.3803 374.28 82.5903C379.2 73.5903 376.68 74.9703 383.28 72.0903C400.92 64.2603 386.28 54.2703 384.72 59.3103C383.91 61.7403 385.47 63.1203 386.52 60.7803C387.06 59.5503 392.79 63.9903 386.04 67.6803C379.8 71.0703 376.77 71.0403 375.09 75.3303C373.41 79.6203 370.71 82.3503 370.8 86.3103C370.8 89.1303 368.19 89.0403 365.16 89.6403C362.762 90.2969 360.663 91.7585 359.215 93.7797C357.768 95.8009 357.06 98.2587 357.21 100.74C357.27 106.14 359.61 106.68 360 102Z" fill="#000001"/>
<path d="M322.2 126.21C320.259 126.165 318.33 126.532 316.54 127.287C314.751 128.042 313.142 129.167 311.82 130.59C310.05 132.48 311.82 134.19 313.62 132.66C314.96 131.275 316.626 130.247 318.465 129.671C320.305 129.094 322.259 128.987 324.15 129.36C346.59 132.36 348.15 160.05 371.1 187.41C373.83 190.62 375.96 189.45 374.91 187.56C370.674 182.33 366.757 176.85 363.18 171.15C344.25 137.19 342.42 129.21 322.2 126.21Z" fill="#000001"/>
<path d="M324 154.05C322.95 155.16 322.17 157.56 323.73 157.05C325.89 156.18 327.93 153.63 333.36 153.69C340.89 153.69 343.62 164.73 344.13 159.12C343.5 150.21 332.58 144.84 324 154.05Z" fill="#000001"/>
<path d="M329.19 189.36C330.81 189.36 330.9 188.28 331.32 186.63C330.84 183.45 328.32 183.63 327.72 185.46C327.12 187.29 327.42 189.27 329.19 189.36Z" fill="#000001"/>
<path d="M304.89 130.2C304.89 132.21 304.89 135.87 306.96 135.54C309.69 135.12 305.19 130.02 309.36 123.54C309.824 122.642 310.482 121.858 311.286 121.246C312.09 120.634 313.021 120.208 314.01 120C314.357 119.858 314.661 119.629 314.892 119.335C315.124 119.04 315.275 118.69 315.33 118.32C315.18 114.36 304.77 118.71 304.89 130.2Z" fill="#000001"/>
<path d="M285 19.08C285.9 19.32 287.19 18.03 288.63 17.79C290.79 17.43 296.52 17.25 297.63 19.44C301.2 26.31 289.11 34.89 287.64 44.37C286.71 50.37 293.01 51.93 302.64 54.6C310.95 56.88 295.47 67.47 300.21 73.86C300.99 74.88 303.21 76.86 305.01 78.75C309.54 83.49 303.66 89.82 306.63 90.45C309.6 91.08 311.79 81.18 306.63 76.17C300.9 70.41 300.3 72.42 306.39 61.77C307.98 58.98 308.85 54.09 305.37 52.59C301.89 51.09 302.37 52.2 294.03 48.96C281.31 44.07 305.49 29.55 299.76 18.24C298.44 15 295.65 15.36 291.84 15C284.16 14.82 283.89 18.78 285 19.08Z" fill="#000001"/>
<path d="M302.49 227.64C302.49 226.56 301.83 223.41 299.31 223.35C296.31 223.35 295.86 227.82 298.02 230.01C299.31 231.36 301.77 231.66 302.49 227.64Z" fill="#000001"/>
<path d="M291.54 184.29C291.3 181.29 288.93 181.29 288.54 182.43C286.65 185.82 290.58 189 291.54 184.29Z" fill="#000001"/>
<path d="M240 288.72C171.63 311.49 174 309.72 175.95 313.5C189.84 342.39 189.36 341.04 191.85 341.31C198.69 339.33 254.49 320.82 254.85 320.64C258.69 319.32 256.47 317.22 246.21 296.4C242.61 288.84 242.73 287.82 240 288.72ZM252.96 318.27L192 338.4C191.28 338.4 192.27 340.11 178.71 313.29C178.02 311.94 174.39 313.77 217.2 299.43C224.64 296.94 231.72 294.45 239.67 291.84C241.74 291.18 240.09 289.14 248.67 306.84C254.1 318.36 254.34 317.82 252.99 318.27H252.96Z" fill="#000001"/>
<path d="M236.52 316.08C236.13 316.08 197.28 328.08 194.52 329.4C193.17 329.97 191.94 331.77 193.59 332.19C194.13 332.19 238.02 319.38 240.33 316.71C239.13 314.49 238.11 316.02 236.52 316.08Z" fill="#000001"/>
<path d="M200.31 313.47C205.26 312.6 205.08 311.01 207.99 311.16C213.54 310.41 215.64 308.16 220.68 306.9C225.72 305.64 227.16 306 231.09 303.9C232.05 303.42 232.71 301.74 230.67 301.32C230.31 301.32 228 302.01 224.67 302.85C212.82 305.85 211.17 308.07 208.11 308.01C204.57 308.01 204.72 309.45 199.44 310.62C187.44 313.29 189.39 314.43 186.18 314.58C185.79 314.58 185.16 315.51 185.04 315.87C184.77 316.95 188.04 317.58 189.6 316.71C192.937 314.973 196.57 313.874 200.31 313.47V313.47Z" fill="#000001"/>
<path d="M210.45 163.77C214.83 157.95 212.25 158.79 226.68 163.77C226.98 163.909 227.317 163.949 227.641 163.884C227.966 163.82 228.261 163.653 228.485 163.409C228.709 163.166 228.849 162.857 228.886 162.528C228.923 162.199 228.854 161.867 228.69 161.58C227.111 158.153 225.286 154.844 223.23 151.68C222 150.12 228.33 143.37 228.45 139.68C228.63 134.25 217.5 143.28 215.07 140.1C213.12 137.55 210.15 134.73 208.2 131.64C207.33 130.23 205.65 129.72 205.38 131.4C203.07 146.73 206.79 142.95 198.24 146.25C193.47 148.11 193.32 148.08 193.05 149.61C192.21 154.44 203.37 155.13 203.4 157.32C203.58 167.19 203.19 166.59 203.4 168.66C203.442 168.938 203.559 169.199 203.737 169.416C203.915 169.633 204.149 169.798 204.413 169.893C204.677 169.988 204.962 170.01 205.238 169.957C205.514 169.904 205.77 169.777 205.98 169.59C207.63 167.778 209.125 165.832 210.45 163.77ZM203.7 153.72C193.44 149.88 193.44 150.72 204.72 146.64C207.18 145.74 206.01 140.37 207.72 135.75C218.43 145.77 209.4 144.93 225.06 141.33C222.75 147.51 217.95 149.28 220.71 152.49C222.253 154.65 223.589 156.95 224.7 159.36C225.45 160.62 221.7 159.36 216.39 157.38C213.39 156.27 214.08 154.02 207 163.92C204.24 167.79 208.23 155.4 203.7 153.72Z" fill="#000001"/>
<path d="M152.7 111.33C154.14 109.77 154.17 109.77 155.49 111.33C156.834 112.928 157.853 114.772 158.49 116.76C159.03 118.68 156.99 117.66 156.36 117.69C153.36 117.69 154.59 119.94 155.34 120.3C162.72 123.87 165.9 115.38 166.11 118.17C166.44 121.95 166.41 126.06 166.59 131.01C166.59 133.26 168.42 134.97 169.95 133.59C171.48 132.21 175.56 128.07 181.35 122.43C190.83 113.16 191.22 113.43 191.1 111.6C189.72 91.5 188.1 96.6 194.7 89.43C202.68 80.82 218.7 63.3 223.89 52.8C231.9 36.93 235.08 20.22 227.61 19.38C217.62 18.27 200.25 27 191.61 34.59C185.414 39.896 179.627 45.6624 174.3 51.84C156.3 71.61 161.4 68.4 153.3 69.48C137.01 71.58 142.71 68.07 122.46 90.15C119.97 92.88 121.74 94.74 123.36 94.74C128.222 94.232 133.115 94.0716 138 94.26C137.152 95.1373 136.529 96.2066 136.185 97.3768C135.84 98.547 135.783 99.7833 136.02 100.98C136.646 103.358 137.9 105.523 139.65 107.25C140.64 107.88 141.36 106.77 140.97 105.6C140.79 105 137.7 100.44 138.6 99.33C139.5 98.22 141.78 99.33 148.41 104.37C150.24 105.75 146.73 107.07 143.76 111.45C142.05 114.03 145.08 115.35 145.89 115.95C146.7 116.55 147.45 116.67 148.26 116.1L152.7 111.33ZM138 131.52C117 164.52 112.32 199.08 128.52 242.04C128.82 242.79 129.84 246.18 130.86 245.49C134.1 243.36 116.97 216.36 122.61 176.64C127.8 140.1 151.92 119.01 152.61 115.83C152.97 114.27 152.4 113.61 150.54 114.33C145.944 119.745 141.753 125.49 138 131.52V131.52ZM147.36 100.17C141.51 95.76 139.2 97.71 140.31 95.82C140.85 94.89 141.39 93.84 142.26 94.23C146.43 94.59 147.87 96.18 152.91 99.6C153.78 100.2 153.09 100.86 151.71 102.21C150.9 103.11 151.08 102.93 147.48 100.17H147.36ZM147 113.73C144.78 112.2 143.79 115.32 170.52 84.18C171.84 82.68 173.52 81.18 174.33 83.19C174.42 83.28 147.15 113.67 147 113.73ZM163.05 116.73C160.41 118.98 162.78 116.73 158.22 110.73C156.12 107.97 155.85 107.97 156.24 107.52C158.67 104.67 158.16 103.32 163.98 114.69C164.58 115.5 163.98 115.95 163.14 116.67L163.05 116.73ZM170.01 130.29C169.05 131.28 169.5 131.25 168.45 116.22C168.45 114.81 180.45 105.42 184.32 100.8C188.19 96.18 187.32 96.96 188.61 110.76C189.24 111.99 189 111.51 170.1 130.23L170.01 130.29ZM198 33.9C204.057 29.4294 210.864 26.0767 218.1 24C229.47 21 228.21 24 228.75 28.47C228.458 32.7153 227.528 36.8923 225.99 40.86C218.76 58.5 219.39 56.91 217.41 53.37C208.23 37.02 195.54 35.43 198 33.9ZM194.13 36.9C197.97 33.27 219.78 55.68 216.63 59.88C207.42 72.24 175.38 108.24 166.92 113.43C165.158 110.001 163.153 106.703 160.92 103.56C160.17 102.45 160.08 103.2 170.67 91.41C176.67 84.57 178.38 83.79 176.28 81.21C175.38 80.1 172.98 78.48 171.45 80.04C169.92 81.6 169.08 82.65 161.55 91.29C154.62 99.21 156.06 98.31 153.6 96.45C143.7 88.98 141.93 94.86 148.26 86.79C162.456 69.1955 177.747 52.5125 194.04 36.84L194.13 36.9ZM139.86 75C141.09 73.56 141.09 73.8 155.82 72C158.13 71.7 151.59 77.01 146.82 84.21C145.74 85.77 141.66 91.23 140.07 91.44C140.07 91.44 125.07 91.89 125.07 91.8C124.44 91.26 132.45 83.61 139.86 75Z" fill="#000001"/>
<path d="M214.59 317.34C220.59 315.6 220.98 315.06 223.11 315.03C223.612 315.063 224.109 314.914 224.511 314.612C224.913 314.309 225.193 313.872 225.3 313.38C225.3 309.93 213.3 315.42 207.63 316.38C202.47 317.25 190.74 320.67 189.03 322.53C187.83 323.85 188.49 324.6 190.11 324.69C196.11 322.65 195.3 322.38 197.46 321.69C210 318.27 201.36 321.15 214.59 317.34Z" fill="#000001"/>
<path d="M204 222C202.14 222.24 195.96 223.59 195 223.86C193.23 224.31 187.68 212.04 186.27 216.6C182.82 227.82 187.56 225.99 178.77 226.74C175.17 227.04 175.11 228 175.2 229.74C175.2 230.91 175.62 231.15 177.78 232.47C187.53 238.47 183.27 234.12 182.46 245.22C182.46 246.75 183.24 247.47 184.47 247.08C187.26 246.15 191.67 238.08 193.71 239.13C196.662 240.15 199.666 241.012 202.71 241.71C204.42 242.19 205.14 241.29 204.93 239.97C204.6 237.87 202.29 236.97 199.98 232.71C199.47 231.72 199.59 232.17 205.32 225.3C206.31 224.04 206.76 221.67 204 222ZM197.4 234C200.19 238.92 201.33 238.47 195.9 237.27C189.6 235.86 192.45 235.44 185.91 242.07C185.13 242.88 186.06 239.58 186.3 236.46C186.57 232.74 179.37 231.54 178.32 229.59C178.83 229.59 177.93 229.59 182.55 229.14C188.25 228.66 185.55 225.45 188.04 220.35C190.08 222.09 192.18 227.31 194.04 226.92C209.25 223.38 194.1 228.18 197.4 234Z" fill="#000001"/>
<path d="M192.78 71.46C207.27 70.71 206.25 49.5 192.33 49.83C177 51.69 179.79 72 192.78 71.46ZM191.19 52.77C192.358 52.5627 193.558 52.6165 194.702 52.9276C195.847 53.2386 196.909 53.7991 197.812 54.569C198.715 55.3388 199.436 56.2989 199.923 57.3803C200.411 58.4617 200.654 59.6377 200.633 60.8239C200.613 62.0101 200.331 63.1771 199.806 64.2412C199.282 65.3053 198.528 66.2401 197.6 66.9786C196.671 67.7171 195.591 68.241 194.436 68.5127C193.281 68.7844 192.08 68.7971 190.92 68.55C189.096 68.1615 187.463 67.1509 186.302 65.6912C185.141 64.2316 184.524 62.4136 184.556 60.5488C184.588 58.684 185.267 56.8882 186.477 55.4691C187.688 54.05 189.354 53.0959 191.19 52.77Z" fill="#000001"/>
<path d="M159.69 271.02C157.71 271.38 157.32 274.02 159.87 274.02C172.89 273.81 173.55 250.23 161.01 250.41C159.647 250.36 158.285 250.553 156.99 250.98C156.81 249.27 159.99 241.8 156.63 235.98C152.91 229.56 142.14 229.98 138.63 238.83C137.282 242.658 136.705 246.715 136.932 250.767C137.159 254.819 138.184 258.786 139.95 262.44C140.64 263.79 142.38 263.01 141.96 261.21C132.96 235.62 150.57 229.02 154.53 238.26C157.83 245.97 150.69 254.49 153.78 256.26C155.97 257.49 157.08 252.66 161.31 253.26C166.8 254.22 167.79 260.19 166.89 264.18C165.36 270.75 161.22 270.72 159.69 271.02Z" fill="#000001"/>
<path d="M128.64 248.22C111.87 220.68 107.64 172.53 128.37 133.29C133.138 124.93 138.481 116.91 144.36 109.29C147.15 106.56 144.36 105.12 142.83 106.86C125.46 127.41 111.84 157.17 111.84 183.99C111.84 223.29 121.68 242.43 126.6 248.31C129 251.07 130.23 250.83 128.64 248.22Z" fill="#000001"/>
<path d="M114.72 271.92C99.72 276.63 101.43 259.23 116.28 265.26C116.463 265.371 116.668 265.441 116.881 265.464C117.094 265.487 117.31 265.464 117.512 265.395C117.715 265.327 117.901 265.215 118.056 265.067C118.211 264.919 118.332 264.739 118.41 264.54C119.22 262.71 117.63 262.26 116.1 261.75C107.91 259.02 117.03 243.39 128.37 262.47C129.3 264.03 130.89 262.95 130.53 261.75C128.13 253.2 118.53 246.75 112.53 252C111.254 253.079 110.401 254.573 110.121 256.22C109.841 257.867 110.152 259.56 111 261C103.92 261.18 102 264 101.19 267.69C99.57 276.39 113.58 277.41 117.15 273.99C118.53 272.61 117.39 271.08 114.72 271.92Z" fill="#000001"/>
<path d="M94.35 218.61C93.9 217.71 93.6 215.97 91.53 217.23C83.1 222.36 84.81 221.55 82.53 219.12C79.11 215.55 78.24 214.17 76.53 214.59C75.78 214.8 75.96 216.33 76.14 217.14C78.21 226.74 78.87 224.19 74.97 225.63C74.07 225.99 73.29 226.41 69.63 227.94C69.2853 228.098 68.9932 228.352 68.7885 228.671C68.5837 228.99 68.4749 229.361 68.4749 229.74C68.4749 230.12 68.5837 230.491 68.7885 230.81C68.9932 231.129 69.2853 231.382 69.63 231.54C80.79 235.71 78.27 234.93 79.02 239.64C79.89 245.04 80.04 246.39 81.18 246.51C81.6447 246.573 82.1171 246.481 82.524 246.247C82.9308 246.014 83.2493 245.653 83.43 245.22C88.11 233.85 85.05 236.85 89.43 237.63C96.96 238.98 97.35 239.73 98.43 238.41C99.51 237.09 97.32 235.14 96.24 233.91C89.16 225.75 91.26 231.15 94.35 218.61ZM92.13 235.02C90.5271 234.901 88.9703 234.429 87.57 233.64C83.79 232.41 83.79 239.97 82.29 241.26C81.9268 239.675 81.7258 238.057 81.69 236.43C81.69 233.13 79.89 232.89 74.43 229.89C73.23 229.2 75.96 228.93 79.05 227.37C82.14 225.81 79.68 222.81 79.62 220.71C79.62 219.45 81.72 222.48 83.04 224.13C85.08 226.68 85.32 222.63 91.05 220.92C90.09 225.87 86.76 227.16 89.97 230.58C94.65 235.59 93.39 235.14 92.13 235.02Z" fill="#000001"/>
</svg>
